<?xml version="1.0" standalone="no"?>
<!DOCTYPE svg PUBLIC "-//W3C//DTD SVG 20010904//EN"
 "http://www.w3.org/TR/2001/REC-SVG-20010904/DTD/svg10.dtd">
<svg version="1.0" xmlns="http://www.w3.org/2000/svg"
 width="500.000000pt" height="500.000000pt" viewBox="0 0 500.000000 500.000000"
 preserveAspectRatio="xMidYMid meet">

<g transform="translate(0.000000,500.000000) scale(0.100000,-0.100000)"
fill="#000000" stroke="none">
<path d="M3291 4153 l-34 -37 -17 22 c-25 30 -32 6 -11 -38 17 -37 37 -46 79
-35 23 6 25 8 9 16 -16 9 -16 12 3 49 36 70 23 80 -29 23z"/>
<path d="M3548 4019 l-47 -49 -19 25 c-34 42 -38 33 -20 -47 6 -25 38 -58 57
-58 9 0 34 5 56 11 37 11 38 12 18 20 -28 10 -28 7 2 79 14 33 25 62 25 65 0
16 -31 -3 -72 -46z"/>
<path d="M2589 4003 c-1 -5 -1 -12 0 -17 1 -5 -5 -4 -13 3 -19 16 -36 6 -36
-21 0 -17 -4 -20 -30 -14 -17 3 -30 1 -30 -4 0 -14 -53 -13 -67 1 -9 9 -16 8
-28 -5 -9 -9 -22 -16 -28 -16 -8 0 -8 3 1 9 11 7 11 9 -2 14 -9 4 -16 14 -16
23 0 8 -6 14 -12 11 -7 -2 -23 -1 -35 4 -14 5 -25 3 -33 -6 -6 -7 -19 -14 -28
-14 -9 0 -38 -1 -63 -1 -29 -1 -53 -7 -65 -18 -25 -24 -35 -26 -45 -10 -6 9
-9 4 -9 -16 l0 -29 -25 23 -25 24 -28 -21 c-15 -11 -26 -28 -26 -36 1 -12 -3
-14 -22 -7 -24 10 -54 4 -54 -9 0 -4 -11 -13 -24 -19 -20 -9 -25 -7 -37 14
l-13 25 -29 -32 c-16 -20 -26 -41 -24 -51 3 -11 0 -18 -10 -18 -8 0 -12 -4 -9
-8 6 -10 -30 -43 -38 -35 -3 4 -6 -1 -6 -11 0 -11 4 -15 13 -10 9 6 9 4 -1 -8
-7 -8 -24 -15 -38 -15 -14 0 -33 -8 -42 -16 -13 -14 -14 -20 -2 -41 9 -18 10
-29 2 -38 -7 -9 -7 -18 2 -30 7 -10 15 -15 18 -13 13 13 0 -33 -17 -62 -20
-31 -45 -41 -121 -46 -38 -3 -63 -22 -59 -45 1 -9 -2 -20 -8 -24 -13 -8 16
-38 38 -38 22 0 31 -29 16 -53 -10 -15 -10 -21 -1 -27 9 -6 9 -9 -1 -13 -8 -3
-3 -5 11 -4 21 2 25 -2 23 -23 -5 -57 -11 -72 -33 -87 -13 -9 -20 -11 -16 -5
11 17 -9 15 -24 -3 -9 -11 -16 -12 -25 -5 -9 8 -15 8 -20 0 -9 -14 4 -32 17
-24 6 4 8 2 4 -4 -3 -6 -1 -14 5 -18 8 -4 7 -9 -2 -15 -10 -6 -11 -11 -3 -16
6 -5 14 -18 18 -30 9 -28 51 -31 60 -6 6 15 8 15 16 3 7 -10 10 -11 10 -2 0
20 17 14 35 -15 15 -23 16 -25 1 -20 -8 3 -32 -1 -52 -9 -23 -10 -33 -11 -29
-3 5 7 3 10 -6 7 -13 -4 -39 13 -39 27 0 10 -27 35 -38 35 -6 0 -12 6 -15 13
-7 21 -20 -1 -22 -38 -2 -22 -11 -44 -24 -56 -11 -11 -21 -16 -21 -12 -1 4 -7
-5 -15 -22 -7 -16 -14 -25 -14 -18 -2 19 -41 2 -41 -18 0 -10 -5 -21 -11 -24
-6 -4 -8 -13 -5 -21 3 -8 -1 -14 -9 -14 -18 0 -19 -11 -3 -45 8 -17 18 -25 29
-22 12 3 15 0 12 -13 -3 -12 -11 -16 -25 -12 -15 4 -19 0 -16 -14 2 -10 -3
-19 -9 -20 -7 -1 -17 -2 -21 -3 -8 -1 -32 -44 -32 -57 0 -3 6 -2 13 2 8 5 8 2
-2 -9 -7 -9 -22 -17 -32 -17 -22 0 -31 -13 -23 -33 9 -24 126 -17 156 8 40 36
62 51 54 38 -14 -25 2 -13 19 13 11 18 13 24 4 19 -8 -5 -5 1 5 13 21 24 32
29 20 10 -4 -6 3 -4 17 5 13 9 28 17 34 17 5 0 4 -4 -3 -9 -10 -6 -4 -10 18
-15 18 -3 36 -3 41 0 5 3 9 -2 9 -11 0 -9 -4 -14 -9 -10 -5 3 -13 0 -17 -6 -5
-8 -9 -7 -14 2 -14 21 -48 18 -55 -5 -4 -12 -7 -26 -6 -32 1 -7 -5 -14 -13
-17 -9 -4 -12 -14 -9 -28 5 -18 3 -21 -10 -16 -10 4 -17 2 -17 -3 0 -6 -7 -10
-15 -10 -8 0 -15 -7 -15 -15 0 -16 -39 -36 -54 -28 -10 6 -26 -16 -26 -36 0
-8 6 -11 16 -7 9 3 12 2 9 -5 -4 -6 2 -13 14 -16 12 -3 21 -12 21 -19 0 -10
-7 -13 -23 -9 -17 4 -25 0 -34 -21 -7 -15 -10 -31 -7 -35 7 -12 54 -11 54 1 0
5 7 7 15 4 9 -4 15 0 15 10 0 9 7 16 16 16 11 0 15 6 11 20 -3 11 -2 20 2 20
4 0 17 10 30 21 20 19 25 20 37 7 18 -18 3 -68 -21 -68 -17 0 -21 -35 -5 -45
6 -3 10 -17 10 -31 0 -25 14 -32 25 -13 4 6 13 8 20 5 17 -6 32 13 30 40 -2
18 1 19 21 10 16 -8 20 -15 14 -27 -15 -27 -8 -57 12 -51 10 2 18 9 18 16 0 6
5 4 10 -4 7 -11 12 -12 21 -3 6 6 18 9 27 5 11 -4 14 -1 9 12 -4 9 -3 15 2 12
5 -3 11 2 13 12 5 19 38 27 35 9 -1 -6 8 -16 21 -22 12 -7 26 -16 30 -20 4 -5
2 -5 -5 -1 -6 3 -14 2 -18 -4 -4 -6 -10 -8 -15 -5 -4 3 -13 -2 -19 -9 -8 -10
-9 -16 -1 -21 6 -3 8 -11 5 -16 -4 -5 1 -9 10 -9 9 0 14 -4 11 -9 -13 -21 6
-39 42 -39 42 0 57 10 84 53 16 27 18 28 18 8 0 -13 5 -23 11 -23 6 0 8 7 5
16 -3 8 -2 12 4 9 9 -6 79 22 90 35 3 4 13 9 23 13 21 8 22 -9 2 -29 -8 -9
-15 -24 -15 -35 0 -18 6 -19 85 -17 63 3 86 0 90 -10 4 -10 9 -10 26 -2 12 7
30 9 41 7 24 -7 50 2 42 14 -3 5 -1 9 5 9 5 0 12 -4 15 -9 3 -5 25 -7 49 -5
24 3 54 1 68 -4 13 -5 50 -6 81 -3 l57 7 -3 -81 c-3 -92 -26 -153 -66 -172
-16 -7 -112 -14 -255 -19 -127 -3 -248 -10 -270 -15 l-40 -8 40 1 c115 1 188
-4 170 -11 -29 -12 443 -21 722 -14 136 4 238 10 228 14 -11 4 27 8 89 8 180
1 111 14 -124 23 -241 9 -252 11 -289 72 -14 24 -20 55 -22 131 -3 67 0 100 7
100 14 0 45 31 38 38 -3 3 1 4 10 3 9 -1 22 -8 29 -16 9 -10 9 -11 0 -6 -7 4
-13 3 -13 -3 0 -5 14 -9 30 -9 17 1 30 5 30 9 0 4 9 7 19 6 11 0 17 -5 15 -9
-6 -10 1 -10 48 1 26 6 38 5 41 -3 3 -7 10 -4 19 8 9 11 17 15 21 9 6 -9 67
-9 94 -1 13 4 83 -24 83 -34 0 -14 28 -9 34 7 3 8 10 15 16 15 6 0 8 -5 5 -10
-10 -16 77 0 94 17 11 12 16 12 31 -2 22 -20 86 -26 82 -7 -1 6 7 12 18 12 11
0 19 5 18 11 -6 26 19 16 40 -16 25 -40 52 -46 53 -12 0 12 3 16 6 10 2 -7 9
-13 15 -13 5 0 16 -7 24 -15 21 -21 34 -19 34 5 0 25 25 26 42 1 16 -23 75
-54 82 -43 3 5 19 8 36 7 17 -1 33 2 36 7 3 5 12 4 19 -2 8 -7 20 -8 27 -4 7
5 19 9 27 9 16 0 34 52 26 73 -3 7 -9 10 -15 7 -6 -4 -7 -11 -4 -17 4 -6 2 -8
-3 -5 -7 5 -8 20 -2 48 10 44 9 49 -13 53 -33 7 -46 19 -46 44 0 15 -3 37 -7
50 -6 19 -4 22 19 22 16 0 26 5 26 15 0 14 -11 19 -36 16 -7 -1 -14 6 -18 15
-4 11 -14 14 -35 9 -17 -3 -32 -2 -36 4 -3 6 -15 11 -26 11 -10 0 -19 4 -19 8
0 4 -9 8 -20 9 -13 1 -18 -2 -13 -10 3 -7 -3 -4 -14 6 -11 9 -25 17 -31 17 -7
0 -12 5 -12 10 0 6 -6 10 -12 10 -7 0 -18 11 -24 24 -9 19 -7 28 7 47 l19 24
0 -36 c0 -34 1 -35 42 -38 25 -1 44 3 49 11 7 10 9 9 9 -4 0 -11 5 -15 15 -12
11 5 15 -2 15 -26 0 -24 4 -31 17 -28 9 2 18 9 21 17 3 9 0 11 -9 5 -11 -6
-12 -5 -2 7 12 14 12 30 0 59 -3 8 -7 24 -9 35 -2 11 -10 20 -18 20 -8 0 -14
-7 -12 -15 2 -11 -2 -10 -12 4 -8 10 -22 16 -30 13 -15 -6 -16 17 -1 30 4 4 5
2 1 -4 -4 -7 -2 -13 3 -13 6 0 11 6 11 14 0 8 10 16 23 18 12 2 21 9 19 16 -1
8 2 11 8 7 5 -3 10 -12 10 -20 0 -9 11 -13 33 -12 17 1 31 5 30 10 -2 4 6 16
18 28 11 11 18 26 16 33 -3 7 4 18 14 24 24 15 24 28 1 34 -14 4 -18 12 -15
34 4 26 0 31 -31 44 -23 8 -38 22 -40 34 -8 43 -5 66 10 66 15 0 19 16 6 24
-5 3 -8 22 -6 43 3 38 -12 83 -28 83 -5 0 -6 -6 -2 -12 6 -10 5 -10 -7 -1 -8
6 -31 14 -51 18 -28 5 -35 11 -31 23 4 10 2 13 -5 8 -7 -4 -12 -1 -12 8 0 9 6
16 14 16 20 0 24 18 17 70 -6 40 -9 45 -30 42 -13 -1 -35 5 -48 13 -13 9 -28
13 -33 10 -5 -3 -12 7 -16 22 -3 15 -7 34 -10 41 -2 7 1 10 6 7 16 -10 12 11
-5 25 -8 7 -21 10 -29 7 -8 -3 -17 1 -20 10 -4 8 -12 13 -20 10 -8 -3 -16 2
-19 14 -3 11 -14 19 -25 19 -11 0 -23 7 -26 16 -4 10 -13 13 -26 9 -11 -4 -20
-2 -20 4 0 6 -7 11 -15 11 -8 0 -15 -4 -15 -9 0 -5 -18 -11 -41 -15 -34 -5
-39 -9 -34 -26 5 -17 2 -20 -24 -20 -17 0 -31 -4 -31 -10 0 -11 -33 -14 -42
-4 -4 3 0 17 8 32 16 32 17 42 4 62 -9 13 -11 13 -20 0 -8 -13 -10 -12 -10 3
0 10 -9 27 -20 39 -15 16 -22 18 -33 10 -19 -16 -27 -5 -18 22 11 33 7 51 -12
50 -9 -1 -17 4 -17 10 0 16 -70 41 -79 28 -6 -10 -26 -15 -51 -13 -11 1 -8 7
10 21 15 12 19 20 11 20 -11 0 -10 4 3 19 13 14 14 21 6 26 -7 4 -16 2 -21 -6
-6 -10 -11 -5 -19 16 -14 37 -30 47 -48 32 -11 -9 -17 -7 -27 6 -14 19 -30 23
-19 5 6 -10 4 -10 -8 0 -20 16 -74 32 -82 24 -4 -3 -15 -6 -26 -7 -15 -1 -20
5 -20 22 0 14 -6 23 -15 23 -9 0 -20 11 -25 25 -9 25 -19 32 -21 18z m-259
-92 c0 -6 -5 -13 -10 -16 -6 -4 -8 -15 -5 -26 5 -14 1 -19 -14 -19 -15 0 -19
-5 -14 -17 3 -10 3 -15 -1 -12 -18 16 -16 59 4 79 21 21 40 26 40 11z m285
-101 c-3 -24 0 -30 16 -30 10 0 19 -4 19 -10 0 -5 -4 -10 -10 -10 -5 0 -10 -9
-10 -19 0 -10 -6 -21 -14 -24 -10 -4 -12 0 -9 14 4 14 0 19 -16 19 -16 0 -21
-6 -21 -25 0 -25 -13 -31 -44 -19 -23 9 -20 34 4 34 13 0 20 7 20 20 0 11 5
20 10 20 6 0 10 12 10 26 0 19 4 25 15 20 8 -3 15 -1 15 4 0 6 4 10 10 10 5 0
7 -13 5 -30z m-55 -5 c0 -8 -4 -15 -10 -15 -5 0 -7 7 -4 15 4 8 8 15 10 15 2
0 4 -7 4 -15z m-20 -46 c0 -4 -9 -7 -19 -6 -11 0 -18 4 -16 7 6 9 35 8 35 -1z
m-703 -205 c-3 -3 -12 -4 -19 -1 -8 3 -5 6 6 6 11 1 17 -2 13 -5z m-7 -21 c0
-3 -7 -15 -16 -25 -14 -14 -14 -20 -4 -33 7 -8 16 -12 21 -9 5 3 9 0 9 -5 0
-6 8 -12 18 -12 16 -1 16 -2 0 -6 -10 -2 -18 -8 -18 -13 0 -5 -10 -10 -22 -12
-13 -2 -23 -8 -23 -15 0 -24 -14 -24 -30 1 -18 26 -11 60 7 35 6 -9 7 1 3 29
-8 47 5 72 36 72 11 0 19 -3 19 -7z m949 -61 c-11 -22 -27 -46 -35 -53 -12 -9
-14 -6 -14 17 0 16 -4 35 -9 43 -7 11 -2 18 17 28 14 8 31 12 38 9 9 -3 11 1
8 12 -5 15 -4 15 5 1 7 -11 5 -27 -10 -57z m-954 18 c3 -5 1 -10 -4 -10 -6 0
-11 5 -11 10 0 6 2 10 4 10 3 0 8 -4 11 -10z m1032 4 c-3 -3 -12 -4 -19 -1 -8
3 -5 6 6 6 11 1 17 -2 13 -5z m-37 -15 c0 -6 10 -9 23 -7 16 2 25 -4 34 -24
12 -29 36 -37 49 -17 4 8 9 7 15 -2 6 -10 9 -11 9 -1 0 6 5 12 12 12 28 0 -21
-31 -63 -40 -40 -9 -38 -9 24 -5 37 2 65 0 62 -4 -9 -15 23 -33 47 -27 13 3
17 3 11 0 -7 -3 -13 -12 -13 -20 0 -17 -12 -18 -26 -4 -8 8 -15 6 -23 -4 -7
-8 -19 -12 -27 -9 -8 3 -14 0 -14 -6 0 -7 -9 -9 -25 -5 -18 4 -25 2 -25 -9 0
-20 -27 -30 -34 -12 -3 8 -13 11 -25 8 -12 -3 -21 -1 -21 6 0 6 -9 11 -20 11
-11 0 -20 -4 -20 -10 0 -14 -43 -12 -59 3 -11 10 -14 10 -18 0 -3 -7 -9 -13
-15 -13 -27 0 27 38 61 44 21 3 44 13 52 22 7 9 25 21 39 26 14 6 20 12 13 15
-6 2 -28 -3 -49 -12 -20 -8 -39 -14 -41 -12 -2 2 6 15 17 30 11 14 20 34 20
44 0 11 3 23 7 26 10 11 23 8 23 -4z m-107 -44 c0 -19 -2 -38 -6 -41 -9 -9
-20 63 -12 76 11 18 18 3 18 -35z m174 23 c-3 -8 -6 -5 -6 6 -1 11 2 17 5 13
3 -3 4 -12 1 -19z m-1412 -28 c3 -6 -1 -7 -9 -4 -18 7 -21 14 -7 14 6 0 13 -4
16 -10z m1145 -24 c0 -3 -4 -8 -10 -11 -5 -3 -10 -1 -10 4 0 6 5 11 10 11 6 0
10 -2 10 -4z m301 -113 c13 -16 12 -17 -3 -4 -10 7 -18 15 -18 17 0 8 8 3 21
-13z m-1385 -5 c3 -4 -1 -5 -10 -4 -8 1 -18 5 -22 8 -3 4 1 5 10 4 8 -1 18 -5
22 -8z m87 -300 c-2 -5 -13 -8 -24 -8 -10 0 -19 3 -19 8 0 4 11 7 24 7 13 0
22 -3 19 -7z m1574 -24 c-3 -3 -12 -4 -19 -1 -8 3 -5 6 6 6 11 1 17 -2 13 -5z
m39 -62 c3 -9 9 -24 14 -33 11 -22 -54 -47 -75 -29 -19 16 -19 40 -1 40 8 0
14 6 13 13 -1 41 3 48 24 37 11 -6 22 -19 25 -28z m119 8 c4 -6 -1 -7 -11 -3
-12 4 -15 3 -10 -5 9 -15 33 -16 38 -1 2 7 17 3 41 -10 21 -12 44 -21 51 -21
8 0 16 -7 20 -15 5 -13 -5 -15 -62 -14 -37 1 -71 0 -77 -1 -5 -1 -17 -2 -25
-1 -12 1 -12 3 2 12 13 7 15 15 8 33 -11 31 9 52 25 26z m161 -106 c5 -19 2
-29 -10 -36 -9 -5 -16 -15 -16 -22 0 -8 -14 -16 -31 -20 -20 -4 -28 -10 -24
-18 4 -7 -17 12 -46 42 l-54 55 25 11 c13 7 53 12 87 13 60 1 63 -1 69 -25z
m-188 -25 c18 -6 40 -25 51 -44 l20 -34 -25 11 c-13 6 -24 15 -24 19 0 4 -7
10 -16 13 -19 7 -47 -12 -38 -26 3 -5 -3 -4 -15 4 -26 16 -28 55 -3 61 9 3 17
5 18 6 1 0 15 -4 32 -10z m69 -105 c-3 -3 -12 -4 -19 -1 -8 3 -5 6 6 6 11 1
17 -2 13 -5z m-1576 -56 c-5 -14 -17 -23 -30 -24 -12 -1 -27 -6 -34 -13 -6 -6
-18 -11 -27 -11 -10 0 -27 -9 -40 -20 -30 -26 -44 -25 -29 2 20 37 36 48 72
48 26 0 36 5 40 20 3 13 14 20 31 20 22 0 24 -3 17 -22z m-48 -70 c-5 -7 -22
-32 -37 -55 -30 -45 -46 -54 -46 -27 0 13 -3 14 -14 5 -12 -10 -17 -8 -25 7
-8 15 -6 23 8 36 9 9 23 16 29 16 7 0 12 4 12 9 0 6 15 12 33 14 17 2 36 5 41
5 5 1 4 -4 -1 -10z m62 -20 c0 -27 -4 -34 -24 -36 -18 -3 -22 -8 -18 -28 3
-17 -1 -25 -14 -29 -10 -3 -16 -12 -13 -20 9 -23 -39 -23 -51 0 -9 17 -4 27
30 64 87 96 90 98 90 49z m-357 0 c-2 -7 3 -12 10 -10 6 1 12 -6 12 -16 0 -10
5 -23 11 -29 9 -9 5 -11 -15 -9 -15 2 -33 11 -40 21 -11 15 -11 21 3 37 18 21
22 22 19 6z m399 -23 c0 -8 -4 -15 -9 -15 -10 0 -11 14 -1 23 9 10 10 9 10 -8z
m968 -24 c-3 -5 -1 -12 5 -16 13 -8 13 -48 0 -61 -12 -12 -3 -44 11 -44 5 0 9
-4 9 -10 0 -5 -9 -10 -19 -10 -11 0 -23 5 -26 10 -3 6 -15 10 -25 10 -34 0
-40 31 -14 73 22 34 27 36 47 26 19 -11 20 -10 10 3 -7 8 -10 18 -6 21 9 10
15 8 8 -2z m-126 -22 c-16 -10 -23 -4 -14 10 3 6 11 8 17 5 6 -4 5 -9 -3 -15z
m-29 -5 c0 -8 -5 -12 -10 -9 -6 4 -8 11 -5 16 9 14 15 11 15 -7z m275 -23 c3
-5 2 -12 -3 -15 -5 -3 -9 1 -9 9 0 17 3 19 12 6z m-958 -72 c7 -16 8 -31 2
-40 -5 -8 -9 -10 -9 -6 0 4 -9 3 -20 -3 -19 -10 -20 -9 -14 17 4 15 11 34 17
41 6 8 6 12 -2 12 -7 0 -9 5 -5 11 7 13 16 4 31 -32z m569 -141 c4 -7 4 -10
-1 -6 -4 4 -15 2 -24 -5 -14 -11 -14 -10 -2 6 16 20 18 21 27 5z"/>
<path d="M3299 3907 c-91 -80 -88 -78 -107 -59 -9 9 -29 33 -45 52 -22 28 -29
32 -36 21 -11 -18 -3 -35 46 -100 43 -56 50 -61 88 -61 42 0 64 15 34 23 -21
6 -21 7 -5 29 54 75 67 98 64 112 -2 11 -12 7 -39 -17z"/>
<path d="M2938 1693 c-18 -49 -13 -63 22 -63 12 1 60 64 78 103 2 4 -16 7 -40
7 -42 0 -43 -1 -60 -47z"/>
<path d="M1610 1701 c0 -11 9 -25 20 -31 19 -10 20 -21 20 -155 0 -134 -1
-145 -20 -155 -11 -6 -20 -20 -20 -31 0 -21 4 -21 148 -17 197 5 232 23 232
121 0 47 -23 78 -70 92 -24 8 -24 8 -3 16 58 21 71 115 20 153 -25 19 -45 21
-178 25 -145 3 -149 3 -149 -18z m227 -47 c20 -20 24 -31 19 -57 -7 -37 -30
-57 -63 -57 -22 0 -23 4 -23 64 0 61 5 72 33 75 4 1 19 -11 34 -25z m10 -177
c7 -7 15 -27 19 -44 5 -26 1 -37 -19 -57 -30 -30 -40 -32 -61 -10 -11 11 -16
34 -16 76 l0 61 32 -7 c18 -4 38 -12 45 -19z"/>
<path d="M2167 1706 c-78 -29 -127 -102 -127 -191 0 -192 230 -277 357 -132
37 42 47 84 41 166 -5 67 -37 120 -90 147 -44 23 -134 28 -181 10z m106 -46
c34 -27 51 -81 50 -161 -3 -194 -145 -196 -161 -3 -6 82 4 131 33 160 29 29
45 30 78 4z"/>
<path d="M2490 1700 c0 -10 9 -24 20 -30 19 -10 20 -21 20 -156 0 -137 -1
-146 -20 -151 -13 -3 -20 -14 -20 -29 0 -24 0 -24 121 -24 146 0 201 12 234
52 47 56 24 146 -42 163 l-28 7 27 14 c33 17 48 43 48 81 0 72 -55 93 -239 93
-114 0 -121 -1 -121 -20z m218 -36 c45 -31 20 -124 -35 -124 -22 0 -23 4 -23
64 0 59 5 71 30 75 3 1 16 -6 28 -15z m20 -191 c6 -9 12 -34 12 -55 0 -47 -35
-77 -69 -58 -18 9 -21 20 -21 77 l0 66 33 -7 c17 -3 38 -14 45 -23z"/>
<path d="M3165 1702 c-45 -21 -65 -55 -65 -110 0 -55 31 -92 112 -137 80 -45
92 -68 46 -94 -41 -23 -76 -3 -84 49 -5 32 -11 40 -28 40 -33 0 -42 -12 -49
-63 -6 -45 -5 -48 20 -58 44 -17 136 -22 180 -10 58 16 93 60 93 117 0 57 -32
93 -125 142 -79 42 -96 73 -51 93 33 16 72 -9 81 -51 7 -33 12 -35 47 -21 21
8 23 14 20 54 -4 52 -10 56 -97 63 -46 4 -70 0 -100 -14z"/>
</g>
</svg>
